<svg width="24" height="24" viewBox="0 0 24 24" fill="none" xmlns="http://www.w3.org/2000/svg">
<path d="M10.8774 19.3L4.27744 12.7C4.17744 12.6 4.10644 12.4917 4.06444 12.375C4.02311 12.2583 4.00244 12.1333 4.00244 12C4.00244 11.8667 4.02311 11.7417 4.06444 11.625C4.10644 11.5083 4.17744 11.4 4.27744 11.3L10.8774 4.7C11.0608 4.51667 11.2898 4.42067 11.5644 4.412C11.8398 4.404 12.0774 4.5 12.2774 4.7C12.4774 4.88333 12.5818 5.11233 12.5904 5.387C12.5984 5.66233 12.5024 5.9 12.3024 6.1L7.40244 11H18.5774C18.8608 11 19.0984 11.0957 19.2904 11.287C19.4818 11.479 19.5774 11.7167 19.5774 12C19.5774 12.2833 19.4818 12.5207 19.2904 12.712C19.0984 12.904 18.8608 13 18.5774 13H7.40244L12.3024 17.9C12.4858 18.0833 12.5818 18.3167 12.5904 18.6C12.5984 18.8833 12.5024 19.1167 12.3024 19.3C12.1191 19.5 11.8858 19.6 11.6024 19.6C11.3191 19.6 11.0774 19.5 10.8774 19.3Z" fill="#2E2E2E"/>
</svg>
