<svg width="24" height="24" viewBox="0 0 24 24" fill="none" xmlns="http://www.w3.org/2000/svg">
<path d="M12.0023 13.4L9.08549 16.325C8.90109 16.5083 8.6664 16.6 8.38142 16.6C8.09644 16.6 7.86174 16.5083 7.67734 16.325C7.49401 16.1417 7.40234 15.9083 7.40234 15.625C7.40234 15.3417 7.49401 15.1083 7.67734 14.925L10.6023 12L7.67734 9.1082C7.49401 8.92378 7.40234 8.68908 7.40234 8.4041C7.40234 8.1191 7.49401 7.8844 7.67734 7.7C7.86068 7.51667 8.09401 7.425 8.37734 7.425C8.66068 7.425 8.89401 7.51667 9.07734 7.7L12.0023 10.625L14.8941 7.7C15.0786 7.51667 15.3133 7.425 15.5982 7.425C15.8832 7.425 16.1179 7.51667 16.3023 7.7C16.5023 7.9 16.6023 8.1375 16.6023 8.4125C16.6023 8.6875 16.5023 8.91667 16.3023 9.1L13.3773 12L16.3023 14.9168C16.4857 15.1012 16.5773 15.3359 16.5773 15.6209C16.5773 15.9059 16.4857 16.1406 16.3023 16.325C16.1023 16.525 15.8648 16.625 15.5898 16.625C15.3148 16.625 15.0857 16.525 14.9023 16.325L12.0023 13.4Z" fill="#2E2E2E"/>
</svg>
