<svg width="24" height="24" viewBox="0 0 24 24" fill="none" xmlns="http://www.w3.org/2000/svg">
<path d="M9.21188 3.6675V4.9125C9.212 4.99518 9.22846 5.07702 9.26033 5.15332C9.2922 5.22961 9.33884 5.29885 9.39756 5.35705C9.45629 5.41525 9.52594 5.46127 9.60251 5.49245C9.67909 5.52363 9.76107 5.53937 9.84375 5.53875H14.7281C14.8943 5.53875 15.0537 5.4728 15.1713 5.35538C15.2889 5.23797 15.3551 5.07868 15.3553 4.9125V3.6675C15.3551 3.50124 15.2889 3.34185 15.1713 3.22429C15.0538 3.10672 14.8944 3.04056 14.7281 3.04031C14.5966 3.04044 14.4664 3.01462 14.3448 2.96435C14.2233 2.91408 14.1129 2.84033 14.0199 2.74733C13.9269 2.65433 13.8531 2.54391 13.8028 2.42237C13.7526 2.30084 13.7268 2.17059 13.7269 2.03906V1.75125C13.7268 1.66857 13.7103 1.58673 13.6784 1.51044C13.6466 1.43415 13.5999 1.36491 13.5412 1.30671C13.4825 1.2485 13.4128 1.20249 13.3362 1.1713C13.2597 1.14012 13.1777 1.12438 13.095 1.125H11.4675C11.3013 1.125 11.1419 1.19095 11.0243 1.30837C10.9067 1.42579 10.8406 1.58507 10.8403 1.75125V2.03906C10.8401 2.30373 10.7351 2.55755 10.5484 2.74513C10.3617 2.93272 10.1084 3.03883 9.84375 3.04031C9.76099 3.0397 9.67893 3.05546 9.6023 3.0867C9.52566 3.11795 9.45597 3.16405 9.39723 3.22235C9.33849 3.28065 9.29187 3.35 9.26006 3.4264C9.22825 3.5028 9.21187 3.58474 9.21188 3.6675Z" fill="#40BDFF"/>
<path d="M14.7234 3.04031C14.5919 3.04044 14.4617 3.01462 14.3401 2.96435C14.2186 2.91407 14.1082 2.84033 14.0152 2.74733C13.9222 2.65433 13.8484 2.5439 13.7982 2.42237C13.7479 2.30084 13.7221 2.17058 13.7222 2.03906V1.75125C13.7219 1.58507 13.6558 1.42579 13.5382 1.30837C13.4206 1.19095 13.2612 1.125 13.095 1.125H12.345C12.5112 1.125 12.6706 1.19095 12.7882 1.30837C12.9058 1.42579 12.9719 1.58507 12.9722 1.75125V2.03906C12.9721 2.17058 12.9979 2.30084 13.0482 2.42237C13.0984 2.5439 13.1722 2.65433 13.2652 2.74733C13.3582 2.84033 13.4686 2.91407 13.5901 2.96435C13.7117 3.01462 13.8419 3.04044 13.9734 3.04031C14.1397 3.04056 14.2991 3.10672 14.4167 3.22429C14.5342 3.34185 14.6004 3.50124 14.6006 3.6675V4.9125C14.6004 5.07868 14.5342 5.23796 14.4166 5.35538C14.299 5.4728 14.1396 5.53875 13.9734 5.53875H14.7234C14.8896 5.53875 15.049 5.4728 15.1666 5.35538C15.2842 5.23796 15.3504 5.07868 15.3506 4.9125V3.6675C15.3504 3.50124 15.2842 3.34185 15.1667 3.22429C15.0491 3.10672 14.8897 3.04056 14.7234 3.04031Z" fill="#2197F7"/>
<path d="M5.93531 22.875H18.5334C18.7324 22.875 18.9231 22.796 19.0638 22.6553C19.2044 22.5147 19.2834 22.3239 19.2834 22.125V5.2275C19.2834 5.02859 19.2044 4.83782 19.0638 4.69717C18.9231 4.55652 18.7324 4.4775 18.5334 4.4775H15.4444V4.9125C15.4439 5.17806 15.3381 5.43258 15.1502 5.62028C14.9624 5.80797 14.7077 5.9135 14.4422 5.91375H9.5625C9.43061 5.91424 9.29992 5.88872 9.1779 5.83865C9.05589 5.78858 8.94494 5.71493 8.85142 5.62193C8.7579 5.52893 8.68364 5.41841 8.63288 5.29667C8.58212 5.17494 8.55587 5.04439 8.55563 4.9125V4.4775H5.93063C5.73171 4.4775 5.54095 4.55652 5.4003 4.69717C5.25964 4.83782 5.18063 5.02859 5.18063 5.2275V22.125C5.18062 22.2239 5.20018 22.3218 5.23816 22.4131C5.27615 22.5044 5.33181 22.5873 5.40195 22.657C5.47209 22.7267 5.55533 22.7818 5.64686 22.8193C5.7384 22.8567 5.83643 22.8756 5.93531 22.875ZM8.88 6.98531C8.89743 7.00273 8.91126 7.02341 8.9207 7.04617C8.93014 7.06893 8.93499 7.09333 8.93499 7.11797C8.93499 7.14261 8.93014 7.16701 8.9207 7.18977C8.91126 7.21253 8.89743 7.23321 8.88 7.25063L7.005 9.12563C6.98759 9.14306 6.96691 9.15689 6.94415 9.16632C6.92138 9.17576 6.89699 9.18062 6.87234 9.18062C6.8477 9.18062 6.82331 9.17576 6.80054 9.16632C6.77778 9.15689 6.7571 9.14306 6.73969 9.12563L5.80219 8.18813C5.76701 8.15294 5.74724 8.10523 5.74724 8.05547C5.74724 8.00571 5.76701 7.958 5.80219 7.92281C5.83737 7.88763 5.88509 7.86787 5.93484 7.86787C5.9846 7.86787 6.03232 7.88763 6.0675 7.92281L6.87281 8.72813L8.61563 6.98531C8.65076 6.95039 8.69828 6.93079 8.74781 6.93079C8.79735 6.93079 8.84487 6.95039 8.88 6.98531ZM6.0675 10.7353L6.87281 11.5406L8.61563 9.79781C8.65081 9.76263 8.69853 9.74287 8.74828 9.74287C8.79804 9.74287 8.84576 9.76263 8.88094 9.79781C8.91612 9.833 8.93589 9.88071 8.93589 9.93047C8.93589 9.98023 8.91612 10.0279 8.88094 10.0631L7.00594 11.9381C6.98853 11.9556 6.96785 11.9694 6.94508 11.9788C6.92232 11.9883 6.89792 11.9931 6.87328 11.9931C6.84864 11.9931 6.82424 11.9883 6.80148 11.9788C6.77872 11.9694 6.75804 11.9556 6.74063 11.9381L5.80313 11.0006C5.76794 10.9654 5.74818 10.9177 5.74818 10.868C5.74818 10.8182 5.76794 10.7705 5.80313 10.7353C5.83831 10.7001 5.88603 10.6804 5.93578 10.6804C5.98554 10.6804 6.03326 10.7001 6.06844 10.7353H6.0675ZM6.0675 13.5478L6.87281 14.3531L8.61563 12.6103C8.65081 12.5751 8.69853 12.5554 8.74828 12.5554C8.79804 12.5554 8.84576 12.5751 8.88094 12.6103C8.91612 12.6455 8.93589 12.6932 8.93589 12.743C8.93589 12.7927 8.91612 12.8404 8.88094 12.8756L7.00594 14.7506C6.98853 14.7681 6.96785 14.7819 6.94508 14.7913C6.92232 14.8008 6.89792 14.8056 6.87328 14.8056C6.84864 14.8056 6.82424 14.8008 6.80148 14.7913C6.77872 14.7819 6.75804 14.7681 6.74063 14.7506L5.80313 13.8131C5.78571 13.7957 5.77189 13.775 5.76246 13.7523C5.75303 13.7295 5.74818 13.7051 5.74818 13.6805C5.74818 13.6307 5.76794 13.583 5.80313 13.5478C5.83831 13.5126 5.88603 13.4929 5.93578 13.4929C5.98554 13.4929 6.03326 13.5126 6.06844 13.5478H6.0675ZM6.0675 16.3603L6.87281 17.1656L8.61563 15.4228C8.65081 15.3876 8.69853 15.3679 8.74828 15.3679C8.79804 15.3679 8.84576 15.3876 8.88094 15.4228C8.91612 15.458 8.93589 15.5057 8.93589 15.5555C8.93589 15.6052 8.91612 15.6529 8.88094 15.6881L7.00594 17.5631C6.98853 17.5806 6.96785 17.5944 6.94508 17.6038C6.92232 17.6133 6.89792 17.6181 6.87328 17.6181C6.84864 17.6181 6.82424 17.6133 6.80148 17.6038C6.77872 17.5944 6.75804 17.5806 6.74063 17.5631L5.80313 16.6256C5.78571 16.6082 5.77189 16.5875 5.76246 16.5648C5.75303 16.542 5.74818 16.5176 5.74818 16.493C5.74818 16.4432 5.76794 16.3955 5.80313 16.3603C5.83831 16.3251 5.88603 16.3054 5.93578 16.3054C5.98554 16.3054 6.03326 16.3251 6.06844 16.3603H6.0675ZM6.0675 19.1653L6.87281 19.9688L8.61563 18.2278C8.65081 18.1926 8.69853 18.1729 8.74828 18.1729C8.79804 18.1729 8.84576 18.1926 8.88094 18.2278C8.91612 18.263 8.93589 18.3107 8.93589 18.3605C8.93589 18.4102 8.91612 18.4579 8.88094 18.4931L7.00594 20.3681C6.98853 20.3856 6.96785 20.3994 6.94508 20.4088C6.92232 20.4183 6.89792 20.4231 6.87328 20.4231C6.84864 20.4231 6.82424 20.4183 6.80148 20.4088C6.77872 20.3994 6.75804 20.3856 6.74063 20.3681L5.80313 19.4306C5.76794 19.3954 5.74818 19.3477 5.74818 19.298C5.74818 19.2482 5.76794 19.2005 5.80313 19.1653C5.83831 19.1301 5.88603 19.1104 5.93578 19.1104C5.98554 19.1104 6.03326 19.1301 6.06844 19.1653H6.0675ZM18.0675 8.2425H10.1494C10.0996 8.2425 10.052 8.22275 10.0168 8.18758C9.98163 8.15242 9.96188 8.10473 9.96188 8.055C9.96188 8.00527 9.98163 7.95758 10.0168 7.92242C10.052 7.88726 10.0996 7.8675 10.1494 7.8675H18.0647C18.1144 7.8675 18.1621 7.88726 18.1973 7.92242C18.2324 7.95758 18.2522 8.00527 18.2522 8.055C18.2522 8.10473 18.2324 8.15242 18.1973 8.18758C18.1621 8.22275 18.1144 8.2425 18.0647 8.2425H18.0675ZM10.1522 10.68H18.0675C18.1172 10.68 18.1649 10.6998 18.2001 10.7349C18.2352 10.7701 18.255 10.8178 18.255 10.8675C18.255 10.9172 18.2352 10.9649 18.2001 11.0001C18.1649 11.0352 18.1172 11.055 18.0675 11.055H10.1494C10.0996 11.055 10.052 11.0352 10.0168 11.0001C9.98163 10.9649 9.96188 10.9172 9.96188 10.8675C9.96188 10.8178 9.98163 10.7701 10.0168 10.7349C10.052 10.6998 10.0996 10.68 10.1494 10.68H10.1522ZM10.1522 13.4925H18.0675C18.1172 13.4925 18.1649 13.5123 18.2001 13.5474C18.2352 13.5826 18.255 13.6303 18.255 13.68C18.255 13.7297 18.2352 13.7774 18.2001 13.8126C18.1649 13.8477 18.1172 13.8675 18.0675 13.8675H10.1494C10.0996 13.8675 10.052 13.8477 10.0168 13.8126C9.98163 13.7774 9.96188 13.7297 9.96188 13.68C9.96188 13.6303 9.98163 13.5826 10.0168 13.5474C10.052 13.5123 10.0996 13.4925 10.1494 13.4925H10.1522ZM10.1522 16.305H18.0675C18.1172 16.305 18.1649 16.3248 18.2001 16.3599C18.2352 16.3951 18.255 16.4428 18.255 16.4925C18.255 16.5422 18.2352 16.5899 18.2001 16.6251C18.1649 16.6602 18.1172 16.68 18.0675 16.68H10.1494C10.0996 16.68 10.052 16.6602 10.0168 16.6251C9.98163 16.5899 9.96188 16.5422 9.96188 16.4925C9.96188 16.4428 9.98163 16.3951 10.0168 16.3599C10.052 16.3248 10.0996 16.305 10.1494 16.305H10.1522ZM10.1522 19.11H18.0675C18.1172 19.11 18.1649 19.1298 18.2001 19.1649C18.2352 19.2001 18.255 19.2478 18.255 19.2975C18.255 19.3472 18.2352 19.3949 18.2001 19.4301C18.1649 19.4652 18.1172 19.485 18.0675 19.485H10.1494C10.0996 19.485 10.052 19.4652 10.0168 19.4301C9.98163 19.3949 9.96188 19.3472 9.96188 19.2975C9.96188 19.2478 9.98163 19.2001 10.0168 19.1649C10.052 19.1298 10.0996 19.11 10.1494 19.11H10.1522Z" fill="#EFFAFE"/>
<path d="M18.5334 4.4775H18.0647C18.2636 4.4775 18.4544 4.55652 18.595 4.69717C18.7357 4.83782 18.8147 5.02859 18.8147 5.2275V22.125C18.8147 22.3239 18.7357 22.5147 18.595 22.6553C18.4544 22.796 18.2636 22.875 18.0647 22.875H18.5334C18.7324 22.875 18.9231 22.796 19.0638 22.6553C19.2044 22.5147 19.2834 22.3239 19.2834 22.125V5.2275C19.2834 5.02859 19.2044 4.83782 19.0638 4.69717C18.9231 4.55652 18.7324 4.4775 18.5334 4.4775Z" fill="#E4EBED"/>
<path d="M12.8137 0.703125H11.1862C10.9083 0.703373 10.6417 0.81385 10.4451 1.01033C10.2484 1.20681 10.1377 1.47326 10.1372 1.75125V2.03906C10.1369 2.19184 10.0765 2.33836 9.96888 2.44683C9.86129 2.55529 9.71527 2.61696 9.5625 2.61844C9.4243 2.6177 9.28733 2.64429 9.15945 2.69669C9.03158 2.74909 8.91533 2.82626 8.81739 2.92376C8.71945 3.02126 8.64177 3.13717 8.5888 3.26481C8.53583 3.39245 8.50862 3.5293 8.50875 3.6675V4.05562H5.46656C5.15584 4.05587 4.85791 4.17942 4.63819 4.39913C4.41848 4.61885 4.29493 4.91678 4.29469 5.2275V22.125C4.29493 22.4357 4.41848 22.7337 4.63819 22.9534C4.85791 23.1731 5.15584 23.2966 5.46656 23.2969H18.5334C18.8442 23.2966 19.1421 23.1731 19.3618 22.9534C19.5815 22.7337 19.7051 22.4357 19.7053 22.125V5.2275C19.7051 4.91678 19.5815 4.61885 19.3618 4.39913C19.1421 4.17942 18.8442 4.05587 18.5334 4.05562H15.4912V3.6675C15.491 3.38935 15.3804 3.12266 15.1837 2.92597C14.987 2.72929 14.7203 2.61869 14.4422 2.61844C14.3661 2.61856 14.2907 2.60366 14.2203 2.57459C14.15 2.54551 14.0861 2.50284 14.0322 2.44902C13.9784 2.39519 13.9357 2.33127 13.9067 2.26093C13.8776 2.19058 13.8627 2.11518 13.8628 2.03906V1.75125C13.8623 1.47326 13.7516 1.20681 13.5549 1.01033C13.3583 0.81385 13.0917 0.703373 12.8137 0.703125ZM15.4912 4.9125V4.52437H18.5334C18.7198 4.52462 18.8985 4.59878 19.0303 4.73059C19.1622 4.8624 19.2363 5.0411 19.2366 5.2275V22.125C19.2363 22.3114 19.1622 22.4901 19.0303 22.6219C18.8985 22.7537 18.7198 22.8279 18.5334 22.8281H5.46656C5.28016 22.8279 5.10146 22.7537 4.96965 22.6219C4.83784 22.4901 4.76368 22.3114 4.76344 22.125V5.2275C4.76368 5.0411 4.83784 4.8624 4.96965 4.73059C5.10146 4.59878 5.28016 4.52462 5.46656 4.52437H8.50875V4.9125C8.50899 5.05055 8.53646 5.18719 8.58957 5.31461C8.64268 5.44203 8.7204 5.55773 8.81827 5.65508C8.91615 5.75243 9.03226 5.82953 9.15996 5.88196C9.28766 5.93439 9.42445 5.96112 9.5625 5.96063H14.4469C14.7241 5.95914 14.9894 5.84812 15.185 5.65177C15.3807 5.45542 15.4908 5.18968 15.4912 4.9125ZM14.4422 3.08719C14.596 3.08744 14.7435 3.14865 14.8523 3.25743C14.961 3.36621 15.0223 3.51367 15.0225 3.6675V4.9125C15.0223 5.06625 14.961 5.21361 14.8522 5.32224C14.7434 5.43086 14.5959 5.49188 14.4422 5.49188H9.5625C9.40875 5.49188 9.26129 5.43086 9.15249 5.32224C9.04368 5.21361 8.98243 5.06625 8.98218 4.9125V3.6675C8.98218 3.51359 9.04332 3.36599 9.15215 3.25716C9.26098 3.14833 9.40859 3.08719 9.5625 3.08719C9.8404 3.08694 10.1069 2.97643 10.3034 2.77992C10.4999 2.58342 10.6104 2.31697 10.6106 2.03906V1.75125C10.6109 1.5975 10.6721 1.45014 10.7809 1.34151C10.8897 1.23289 11.0372 1.17187 11.1909 1.17188H12.8184C12.9722 1.17187 13.1196 1.23289 13.2284 1.34151C13.3372 1.45014 13.3985 1.5975 13.3987 1.75125V2.03906C13.3986 2.17674 13.4257 2.31309 13.4783 2.44031C13.5309 2.56753 13.6081 2.68312 13.7055 2.78047C13.8028 2.87783 13.9184 2.95503 14.0456 3.00766C14.1728 3.06028 14.3092 3.08731 14.4469 3.08719H14.4422Z" fill="#263238"/>
<path d="M8.58187 6.95156L6.87281 8.66062L6.10125 7.88906C6.05724 7.84505 5.99755 7.82033 5.93531 7.82033C5.87307 7.82033 5.81338 7.84505 5.76937 7.88906C5.72536 7.93307 5.70064 7.99276 5.70064 8.055C5.70064 8.11724 5.72536 8.17693 5.76937 8.22094L6.70687 9.15844C6.72864 9.18026 6.75451 9.19758 6.78298 9.2094C6.81145 9.22121 6.84198 9.22729 6.87281 9.22729C6.90364 9.22729 6.93416 9.22121 6.96264 9.2094C6.99111 9.19758 7.01698 9.18026 7.03875 9.15844L8.91375 7.28344C8.95776 7.23943 8.98248 7.17974 8.98248 7.1175C8.98248 7.05526 8.95776 6.99557 8.91375 6.95156C8.86974 6.90755 8.81005 6.88283 8.74781 6.88283C8.68557 6.88283 8.62588 6.90755 8.58187 6.95156Z" fill="#263238"/>
<path d="M9.915 8.055C9.915 8.11716 9.93969 8.17677 9.98365 8.22073C10.0276 8.26468 10.0872 8.28938 10.1494 8.28938H18.0647C18.1268 8.28938 18.1865 8.26468 18.2304 8.22073C18.2744 8.17677 18.2991 8.11716 18.2991 8.055C18.2991 7.99284 18.2744 7.93323 18.2304 7.88927C18.1865 7.84532 18.1268 7.82063 18.0647 7.82063H10.1494C10.0872 7.82063 10.0276 7.84532 9.98365 7.88927C9.93969 7.93323 9.915 7.99284 9.915 8.055Z" fill="#263238"/>
<path d="M8.58187 9.76406L6.87281 11.4731L6.10125 10.7016C6.07946 10.6798 6.05358 10.6625 6.02511 10.6507C5.99664 10.6389 5.96613 10.6328 5.93531 10.6328C5.90449 10.6328 5.87398 10.6389 5.8455 10.6507C5.81703 10.6625 5.79116 10.6798 5.76937 10.7016C5.74758 10.7234 5.73029 10.7492 5.7185 10.7777C5.70671 10.8062 5.70064 10.8367 5.70064 10.8675C5.70064 10.8983 5.70671 10.9288 5.7185 10.9573C5.73029 10.9858 5.74758 11.0116 5.76937 11.0334L6.70687 11.9709C6.72864 11.9928 6.75451 12.0101 6.78298 12.0219C6.81145 12.0337 6.84198 12.0398 6.87281 12.0398C6.90364 12.0398 6.93416 12.0337 6.96264 12.0219C6.99111 12.0101 7.01698 11.9928 7.03875 11.9709L8.91375 10.0959C8.93554 10.0741 8.95282 10.0483 8.96462 10.0198C8.97641 9.99133 8.98248 9.96082 8.98248 9.93C8.98248 9.89918 8.97641 9.86867 8.96462 9.84019C8.95282 9.81172 8.93554 9.78585 8.91375 9.76406C8.89196 9.74227 8.86608 9.72498 8.83761 9.71319C8.80914 9.7014 8.77863 9.69533 8.74781 9.69533C8.71699 9.69533 8.68648 9.7014 8.658 9.71319C8.62953 9.72498 8.60366 9.74227 8.58187 9.76406Z" fill="#263238"/>
<path d="M18.0647 10.6331H10.1494C10.0872 10.6331 10.0276 10.6578 9.98365 10.7018C9.93969 10.7457 9.915 10.8053 9.915 10.8675C9.915 10.9297 9.93969 10.9893 9.98365 11.0332C10.0276 11.0772 10.0872 11.1019 10.1494 11.1019H18.0647C18.1268 11.1019 18.1865 11.0772 18.2304 11.0332C18.2744 10.9893 18.2991 10.9297 18.2991 10.8675C18.2991 10.8053 18.2744 10.7457 18.2304 10.7018C18.1865 10.6578 18.1268 10.6331 18.0647 10.6331Z" fill="#263238"/>
<path d="M8.58187 12.5766L6.87281 14.2856L6.10125 13.5141C6.05724 13.4701 5.99755 13.4453 5.93531 13.4453C5.87307 13.4453 5.81338 13.4701 5.76937 13.5141C5.72536 13.5581 5.70064 13.6178 5.70064 13.68C5.70064 13.7422 5.72536 13.8019 5.76937 13.8459L6.70687 14.7834C6.72864 14.8053 6.75451 14.8226 6.78298 14.8344C6.81145 14.8462 6.84198 14.8523 6.87281 14.8523C6.90364 14.8523 6.93416 14.8462 6.96264 14.8344C6.99111 14.8226 7.01698 14.8053 7.03875 14.7834L8.91375 12.9084C8.93554 12.8866 8.95282 12.8608 8.96462 12.8323C8.97641 12.8038 8.98248 12.7733 8.98248 12.7425C8.98248 12.7117 8.97641 12.6812 8.96462 12.6527C8.95282 12.6242 8.93554 12.5984 8.91375 12.5766C8.89196 12.5548 8.86608 12.5375 8.83761 12.5257C8.80914 12.5139 8.77863 12.5078 8.74781 12.5078C8.71699 12.5078 8.68648 12.5139 8.658 12.5257C8.62953 12.5375 8.60366 12.5548 8.58187 12.5766Z" fill="#263238"/>
<path d="M18.0647 13.4456H10.1494C10.0872 13.4456 10.0276 13.4703 9.98365 13.5143C9.93969 13.5582 9.915 13.6178 9.915 13.68C9.915 13.7422 9.93969 13.8018 9.98365 13.8457C10.0276 13.8897 10.0872 13.9144 10.1494 13.9144H18.0647C18.1268 13.9144 18.1865 13.8897 18.2304 13.8457C18.2744 13.8018 18.2991 13.7422 18.2991 13.68C18.2991 13.6178 18.2744 13.5582 18.2304 13.5143C18.1865 13.4703 18.1268 13.4456 18.0647 13.4456Z" fill="#263238"/>
<path d="M8.58187 15.3891L6.87281 17.0981L6.10125 16.3266C6.05724 16.2826 5.99755 16.2578 5.93531 16.2578C5.87307 16.2578 5.81338 16.2826 5.76937 16.3266C5.72536 16.3706 5.70064 16.4303 5.70064 16.4925C5.70064 16.5547 5.72536 16.6144 5.76937 16.6584L6.70687 17.5959C6.72864 17.6178 6.75451 17.6351 6.78298 17.6469C6.81145 17.6587 6.84198 17.6648 6.87281 17.6648C6.90364 17.6648 6.93416 17.6587 6.96264 17.6469C6.99111 17.6351 7.01698 17.6178 7.03875 17.5959L8.91375 15.7209C8.93554 15.6991 8.95282 15.6733 8.96462 15.6448C8.97641 15.6163 8.98248 15.5858 8.98248 15.555C8.98248 15.5242 8.97641 15.4937 8.96462 15.4652C8.95282 15.4367 8.93554 15.4109 8.91375 15.3891C8.89196 15.3673 8.86608 15.35 8.83761 15.3382C8.80914 15.3264 8.77863 15.3203 8.74781 15.3203C8.71699 15.3203 8.68648 15.3264 8.658 15.3382C8.62953 15.35 8.60366 15.3673 8.58187 15.3891Z" fill="#263238"/>
<path d="M18.0647 16.2581H10.1494C10.0872 16.2581 10.0276 16.2828 9.98365 16.3268C9.93969 16.3707 9.915 16.4303 9.915 16.4925C9.915 16.5547 9.93969 16.6143 9.98365 16.6582C10.0276 16.7022 10.0872 16.7269 10.1494 16.7269H18.0647C18.1268 16.7269 18.1865 16.7022 18.2304 16.6582C18.2744 16.6143 18.2991 16.5547 18.2991 16.4925C18.2991 16.4303 18.2744 16.3707 18.2304 16.3268C18.1865 16.2828 18.1268 16.2581 18.0647 16.2581Z" fill="#263238"/>
<path d="M8.58187 18.1941L6.87281 19.9031L6.10125 19.1316C6.05724 19.0876 5.99755 19.0628 5.93531 19.0628C5.87307 19.0628 5.81338 19.0876 5.76937 19.1316C5.72536 19.1756 5.70064 19.2353 5.70064 19.2975C5.70064 19.3597 5.72536 19.4194 5.76937 19.4634L6.70687 20.4009C6.72864 20.4228 6.75451 20.4401 6.78298 20.4519C6.81145 20.4637 6.84198 20.4698 6.87281 20.4698C6.90364 20.4698 6.93416 20.4637 6.96264 20.4519C6.99111 20.4401 7.01698 20.4228 7.03875 20.4009L8.91375 18.5259C8.93554 18.5041 8.95282 18.4783 8.96462 18.4498C8.97641 18.4213 8.98248 18.3908 8.98248 18.36C8.98248 18.3292 8.97641 18.2987 8.96462 18.2702C8.95282 18.2417 8.93554 18.2159 8.91375 18.1941C8.89196 18.1723 8.86608 18.155 8.83761 18.1432C8.80914 18.1314 8.77863 18.1253 8.74781 18.1253C8.71699 18.1253 8.68648 18.1314 8.658 18.1432C8.62953 18.155 8.60366 18.1723 8.58187 18.1941Z" fill="#263238"/>
<path d="M18.0647 19.0631H10.1494C10.0872 19.0631 10.0276 19.0878 9.98365 19.1318C9.93969 19.1757 9.915 19.2353 9.915 19.2975C9.915 19.3597 9.93969 19.4193 9.98365 19.4632C10.0276 19.5072 10.0872 19.5319 10.1494 19.5319H18.0647C18.1268 19.5319 18.1865 19.5072 18.2304 19.4632C18.2744 19.4193 18.2991 19.3597 18.2991 19.2975C18.2991 19.2353 18.2744 19.1757 18.2304 19.1318C18.1865 19.0878 18.1268 19.0631 18.0647 19.0631Z" fill="#263238"/>
<path d="M22.0312 18.8288H21.6562V18.4538C21.6562 18.4289 21.6464 18.405 21.6288 18.3875C21.6112 18.3699 21.5874 18.36 21.5625 18.36C21.5376 18.36 21.5138 18.3699 21.4962 18.3875C21.4786 18.405 21.4688 18.4289 21.4688 18.4538V18.8288H21.0938C21.0689 18.8288 21.045 18.8386 21.0275 18.8562C21.0099 18.8738 21 18.8976 21 18.9225C21 18.9474 21.0099 18.9712 21.0275 18.9888C21.045 19.0064 21.0689 19.0163 21.0938 19.0163H21.4688V19.3913C21.4688 19.4161 21.4786 19.44 21.4962 19.4575C21.5138 19.4751 21.5376 19.485 21.5625 19.485C21.5874 19.485 21.6112 19.4751 21.6288 19.4575C21.6464 19.44 21.6562 19.4161 21.6562 19.3913V19.0163H22.0312C22.0561 19.0163 22.08 19.0064 22.0975 18.9888C22.1151 18.9712 22.125 18.9474 22.125 18.9225C22.125 18.8976 22.1151 18.8738 22.0975 18.8562C22.08 18.8386 22.0561 18.8288 22.0312 18.8288Z" fill="#40BDFF"/>
<path d="M17.1328 3.25125C17.0216 3.25125 16.9128 3.21826 16.8203 3.15645C16.7278 3.09464 16.6557 3.00679 16.6131 2.90401C16.5706 2.80123 16.5594 2.68813 16.5811 2.57901C16.6028 2.4699 16.6564 2.36967 16.7351 2.291C16.8137 2.21234 16.914 2.15876 17.0231 2.13706C17.1322 2.11536 17.2453 2.12649 17.3481 2.16907C17.4509 2.21164 17.5387 2.28374 17.6005 2.37624C17.6623 2.46875 17.6953 2.5775 17.6953 2.68875C17.6953 2.83794 17.636 2.98101 17.5306 3.0865C17.4251 3.19199 17.282 3.25125 17.1328 3.25125ZM17.1328 2.31375C17.0586 2.31375 16.9861 2.33574 16.9245 2.37695C16.8628 2.41816 16.8147 2.47672 16.7864 2.54525C16.758 2.61377 16.7505 2.68917 16.765 2.76191C16.7795 2.83465 16.8152 2.90147 16.8676 2.95392C16.9201 3.00636 16.9869 3.04208 17.0597 3.05655C17.1324 3.07102 17.2078 3.06359 17.2763 3.03521C17.3448 3.00682 17.4034 2.95876 17.4446 2.89709C17.4858 2.83542 17.5078 2.76292 17.5078 2.68875C17.5078 2.5893 17.4683 2.49391 17.398 2.42359C17.3277 2.35326 17.2323 2.31375 17.1328 2.31375Z" fill="#40BDFF"/>
<path d="M21.5625 8.38313C21.4512 8.38313 21.3425 8.35014 21.25 8.28833C21.1575 8.22652 21.0854 8.13867 21.0428 8.03589C21.0002 7.9331 20.9891 7.82 21.0108 7.71089C21.0325 7.60177 21.0861 7.50155 21.1648 7.42288C21.2434 7.34421 21.3436 7.29064 21.4528 7.26893C21.5619 7.24723 21.675 7.25837 21.7778 7.30094C21.8805 7.34352 21.9684 7.41561 22.0302 7.50812C22.092 7.60062 22.125 7.70937 22.125 7.82063C22.125 7.96981 22.0657 8.11288 21.9602 8.21837C21.8548 8.32386 21.7117 8.38313 21.5625 8.38313ZM21.5625 7.44563C21.4883 7.44563 21.4158 7.46762 21.3542 7.50882C21.2925 7.55003 21.2444 7.6086 21.216 7.67712C21.1877 7.74564 21.1802 7.82104 21.1947 7.89378C21.2092 7.96653 21.2449 8.03335 21.2973 8.08579C21.3498 8.13824 21.4166 8.17395 21.4893 8.18842C21.5621 8.20289 21.6375 8.19546 21.706 8.16708C21.7745 8.1387 21.8331 8.09063 21.8743 8.02896C21.9155 7.9673 21.9375 7.89479 21.9375 7.82063C21.9375 7.72117 21.898 7.62579 21.8277 7.55546C21.7573 7.48513 21.662 7.44563 21.5625 7.44563Z" fill="#FFDD00"/>
<path d="M3.65625 14.4703H3.41344L3.585 14.2988C3.60036 14.2808 3.60838 14.2577 3.60747 14.2342C3.60656 14.2106 3.59678 14.1882 3.58008 14.1715C3.56339 14.1548 3.54101 14.145 3.51741 14.1441C3.49382 14.1432 3.47075 14.1512 3.45281 14.1666L3.28125 14.3381V14.0953C3.28125 14.0704 3.27137 14.0466 3.25379 14.029C3.23621 14.0114 3.21236 14.0016 3.1875 14.0016C3.16264 14.0016 3.13879 14.0114 3.12121 14.029C3.10363 14.0466 3.09375 14.0704 3.09375 14.0953V14.3381L2.92219 14.1666C2.90425 14.1512 2.88118 14.1432 2.85759 14.1441C2.83399 14.145 2.81161 14.1548 2.79492 14.1715C2.77822 14.1882 2.76844 14.2106 2.76753 14.2342C2.76662 14.2577 2.77464 14.2808 2.79 14.2988L2.96156 14.4703H2.71875C2.69389 14.4703 2.67004 14.4802 2.65246 14.4978C2.63488 14.5154 2.625 14.5392 2.625 14.5641C2.625 14.5889 2.63488 14.6128 2.65246 14.6304C2.67004 14.6479 2.69389 14.6578 2.71875 14.6578H2.96156L2.79 14.8294C2.77464 14.8473 2.76662 14.8704 2.76753 14.894C2.76844 14.9176 2.77822 14.94 2.79492 14.9566C2.81161 14.9733 2.83399 14.9831 2.85759 14.984C2.88118 14.9849 2.90425 14.9769 2.92219 14.9616L3.09375 14.7909V15.0338C3.09375 15.0586 3.10363 15.0825 3.12121 15.1C3.13879 15.1176 3.16264 15.1275 3.1875 15.1275C3.21236 15.1275 3.23621 15.1176 3.25379 15.1C3.27137 15.0825 3.28125 15.0586 3.28125 15.0338V14.7909L3.45281 14.9625C3.47075 14.9779 3.49382 14.9859 3.51741 14.985C3.54101 14.9841 3.56339 14.9743 3.58008 14.9576C3.59678 14.9409 3.60656 14.9185 3.60747 14.8949C3.60838 14.8713 3.60036 14.8482 3.585 14.8303L3.41344 14.6588H3.65625C3.68111 14.6588 3.70496 14.6489 3.72254 14.6313C3.74012 14.6137 3.75 14.5899 3.75 14.565C3.75 14.5401 3.74012 14.5163 3.72254 14.4987C3.70496 14.4811 3.68111 14.4713 3.65625 14.4713V14.4703Z" fill="#40BDFF"/>
</svg>
