<svg width="24" height="24" viewBox="0 0 24 24" fill="none" xmlns="http://www.w3.org/2000/svg">
<path fill-rule="evenodd" clip-rule="evenodd" d="M21.5 7.5C21.5 7.086 21.164 6.75 20.75 6.75H17.75C17.336 6.75 17 7.086 17 7.5V21C17 21.414 17.336 21.75 17.75 21.75H20.75C21.164 21.75 21.5 21.414 21.5 21V7.5ZM6.5 12C6.5 11.586 6.164 11.25 5.75 11.25H2.75C2.336 11.25 2 11.586 2 12V21C2 21.414 2.336 21.75 2.75 21.75H5.75C6.164 21.75 6.5 21.414 6.5 21V12ZM14 3C14 2.586 13.664 2.25 13.25 2.25H10.25C9.836 2.25 9.5 2.586 9.5 3V21C9.5 21.414 9.836 21.75 10.25 21.75H13.25C13.664 21.75 14 21.414 14 21V3Z" fill="#2E2E2E"/>
</svg>
