<svg width="674" height="565" viewBox="0 0 674 565" fill="none" xmlns="http://www.w3.org/2000/svg">
<g clip-path="url(#clip0_302_8187)">
<path d="M665.5 0.5H8.5C4.35786 0.5 1 3.85786 1 8V556.58C1 560.722 4.35786 564.08 8.5 564.08H665.5C669.642 564.08 673 560.722 673 556.58V8C673 3.85786 669.642 0.5 665.5 0.5Z" stroke="black" stroke-opacity="0.2"/>
<path d="M605.5 40H68.5C64.0817 40 60.5 43.5817 60.5 48V92C60.5 96.4183 64.0817 100 68.5 100H605.5C609.918 100 613.5 96.4183 613.5 92V48C613.5 43.5817 609.918 40 605.5 40Z" fill="#D9D9D9" fill-opacity="0.2"/>
<path d="M605.416 124.022L68.4182 125.505C63.9999 125.517 60.4281 129.109 60.4403 133.527L60.5618 177.527C60.574 181.945 64.1656 185.517 68.5838 185.505L605.582 184.022C610 184.01 613.572 180.418 613.56 176L613.438 132C613.426 127.582 609.834 124.01 605.416 124.022Z" fill="#D9D9D9" fill-opacity="0.2"/>
<path d="M605.5 209.527H68.5C64.0817 209.527 60.5 213.109 60.5 217.527V261.527C60.5 265.945 64.0817 269.527 68.5 269.527H605.5C609.918 269.527 613.5 265.945 613.5 261.527V217.527C613.5 213.109 609.918 209.527 605.5 209.527Z" fill="#D9D9D9" fill-opacity="0.2"/>
<path d="M605.416 293.549L68.4182 295.032C63.9999 295.044 60.4281 298.636 60.4403 303.054L60.5618 347.054C60.574 351.472 64.1656 355.044 68.5838 355.032L605.582 353.549C610 353.537 613.572 349.945 613.56 345.527L613.438 301.527C613.426 297.109 609.834 293.537 605.416 293.549Z" fill="#D9D9D9" fill-opacity="0.2"/>
<path d="M605.5 379.053H68.5C64.0817 379.053 60.5 382.635 60.5 387.053V431.053C60.5 435.471 64.0817 439.053 68.5 439.053H605.5C609.918 439.053 613.5 435.471 613.5 431.053V387.053C613.5 382.635 609.918 379.053 605.5 379.053Z" fill="#D9D9D9" fill-opacity="0.2"/>
<path d="M605.416 463.075L68.4182 464.558C63.9999 464.57 60.4281 468.162 60.4403 472.58L60.5618 516.58C60.574 520.998 64.1656 524.57 68.5838 524.558L605.582 523.075C610 523.063 613.572 519.471 613.56 515.053L613.438 471.053C613.426 466.635 609.834 463.063 605.416 463.075Z" fill="#D9D9D9" fill-opacity="0.2"/>
</g>
<defs>
<clipPath id="clip0_302_8187">
<rect width="674" height="565" fill="white"/>
</clipPath>
</defs>
</svg>
